<?xml version="1.0" standalone="no"?>
<!DOCTYPE svg PUBLIC "-//W3C//DTD SVG 20010904//EN"
 "http://www.w3.org/TR/2001/REC-SVG-20010904/DTD/svg10.dtd">
<svg version="1.0" xmlns="http://www.w3.org/2000/svg"
 width="512.000000pt" height="512.000000pt" viewBox="0 0 512.000000 512.000000"
 preserveAspectRatio="xMidYMid meet">
<metadata>
Created by potrace 1.14, written by Peter Selinger 2001-2017
</metadata>
<g transform="translate(0.000000,512.000000) scale(0.100000,-0.100000)"
fill="#000000" stroke="none">
<path d="M945 4228 c-98 -156 -178 -287 -178 -293 0 -5 37 -172 82 -370 44
-199 81 -369 81 -380 0 -10 -65 -129 -143 -264 l-144 -246 -2 -460 -2 -460
-34 -35 c-41 -42 -104 -194 -89 -215 5 -8 191 -161 414 -341 223 -180 434
-352 469 -381 36 -29 71 -53 79 -53 8 0 43 25 77 55 35 30 65 55 68 55 2 0 7
-12 10 -27 4 -17 20 -37 41 -50 l36 -23 187 21 c148 17 198 26 234 45 l47 23
243 -64 c134 -36 308 -82 386 -103 l142 -37 33 38 33 38 637 157 c350 86 641
162 646 167 14 14 94 472 87 493 -3 9 -21 34 -40 56 -34 38 -37 39 -167 62
l-133 23 -70 -24 c-38 -13 -72 -22 -73 -20 -2 2 67 77 155 167 87 90 251 260
364 378 l206 215 92 167 91 168 -6 209 -7 210 -102 41 -103 41 -49 -30 c-28
-17 -53 -31 -56 -31 -3 0 -7 24 -9 53 -3 44 -6 52 -23 52 -11 0 -112 -56 -225
-124 -170 -104 -215 -136 -265 -191 -296 -324 -489 -534 -533 -580 l-52 -55
123 255 c68 140 186 382 261 536 l138 281 -48 178 c-30 114 -53 179 -62 183
-8 3 -73 -14 -143 -38 -71 -24 -132 -40 -136 -36 -5 4 -13 22 -19 39 -6 18
-18 33 -27 35 -31 6 -251 -61 -272 -83 -11 -11 -55 -67 -98 -123 -42 -56 -81
-102 -85 -102 -4 1 -41 60 -82 133 -54 94 -81 133 -95 134 -11 1 -119 -44
-239 -100 l-220 -102 -92 -224 c-51 -123 -97 -228 -101 -232 -5 -5 -9 63 -8
152 l0 160 -163 105 c-90 57 -169 104 -177 104 -7 0 -28 -25 -45 -56 -18 -30
-34 -54 -35 -52 -2 2 -53 185 -114 407 -60 222 -111 404 -113 406 -12 10 -378
236 -390 240 -11 4 -61 -67 -193 -277z m399 12 c5 -5 35 -113 66 -242 32 -128
100 -395 150 -593 50 -198 140 -554 200 -792 l109 -432 -24 -177 c-14 -97 -25
-180 -25 -184 0 -4 -61 -58 -136 -121 l-135 -114 3 -72 c2 -40 0 -69 -3 -65
-4 4 -14 41 -24 82 -15 69 -73 310 -255 1065 -38 160 -95 396 -125 525 -31
129 -90 376 -131 548 l-74 314 42 47 c24 26 81 89 128 140 l85 92 70 -6 c39
-4 74 -10 79 -15z m142 -22 c8 -9 58 -183 139 -488 40 -151 96 -360 124 -465
93 -342 153 -558 183 -669 l30 -108 -30 -32 c-24 -24 -33 -46 -43 -100 l-12
-70 -54 215 c-30 118 -97 383 -149 589 -53 206 -129 510 -170 675 -41 165 -84
332 -95 370 -11 39 -22 77 -25 86 -4 13 3 14 46 9 27 -3 52 -9 56 -12z m-579
-370 c40 -41 44 -51 82 -203 22 -88 56 -232 76 -320 20 -88 67 -286 105 -440
37 -154 96 -399 131 -545 34 -146 95 -401 134 -567 39 -166 67 -299 61 -295
-38 23 -137 95 -141 103 -4 5 -30 116 -60 246 -30 131 -70 308 -90 393 -59
258 -152 668 -225 991 -37 168 -87 383 -110 478 -32 136 -39 175 -29 187 17
20 20 19 66 -28z m2214 -518 c30 -36 73 -91 97 -122 l42 -58 -49 -77 c-161
-252 -252 -394 -334 -523 -51 -80 -105 -163 -120 -185 l-27 -40 0 66 c0 129
-6 148 -86 255 -40 54 -72 104 -70 110 3 6 67 94 143 195 77 101 163 216 192
254 120 161 146 194 152 192 3 -1 30 -31 60 -67z m-1106 -4 l120 -33 -3 -149
c-1 -82 -5 -228 -9 -324 l-6 -174 -50 -53 c-27 -29 -53 -53 -56 -53 -3 0 -18
46 -34 103 -15 56 -42 156 -61 222 -30 109 -34 137 -40 308 -5 147 -4 187 6
187 7 0 67 -15 133 -34z m1549 -563 c-125 -257 -238 -486 -251 -508 -12 -22
-91 -114 -174 -205 -83 -91 -203 -222 -267 -292 -63 -71 -118 -128 -122 -128
-4 0 -10 137 -14 305 l-7 305 63 100 c113 180 259 408 434 678 l81 125 219 42
c120 24 228 44 239 47 11 2 22 3 24 2 2 -2 -99 -214 -225 -471z m861 -3 c3 -6
-1 -7 -9 -4 -18 7 -21 14 -7 14 6 0 13 -4 16 -10z m167 -72 c65 -34 117 -67
116 -73 -2 -5 -27 -55 -56 -110 -57 -109 -34 -84 -702 -776 -129 -134 -398
-415 -598 -624 -200 -209 -379 -394 -397 -411 l-32 -32 -129 34 c-71 19 -217
57 -324 86 -107 28 -199 54 -203 58 -4 3 115 112 265 241 149 129 353 304 452
389 98 85 214 184 256 220 66 56 390 335 655 564 278 240 359 309 439 377 50
42 100 86 110 98 11 11 21 21 24 21 3 0 58 -28 124 -62z m-1907 -738 l7 -395
-164 -175 c-90 -97 -194 -209 -231 -250 -52 -57 -67 -69 -63 -50 12 58 167
865 186 969 17 88 19 120 11 144 -13 37 -20 26 124 194 l110 128 6 -85 c4 -47
10 -263 14 -480z m1075 237 c0 -2 -10 -12 -22 -23 l-23 -19 19 23 c18 21 26
27 26 19z m-1843 -119 c-3 -7 -5 -2 -5 12 0 14 2 19 5 13 2 -7 2 -19 0 -25z
m-10 -75 c-3 -10 -5 -4 -5 12 0 17 2 24 5 18 2 -7 2 -21 0 -30z m-10 -75 c-3
-7 -5 -2 -5 12 0 14 2 19 5 13 2 -7 2 -19 0 -25z m430 -70 c-3 -8 -6 -5 -6 6
-1 11 2 17 5 13 3 -3 4 -12 1 -19z m1053 8 c0 -2 -8 -10 -17 -17 -16 -13 -17
-12 -4 4 13 16 21 21 21 13z m-2138 -249 c122 -84 246 -169 273 -189 l50 -36
24 -226 c13 -125 22 -228 20 -230 -2 -2 -90 64 -195 148 -105 83 -251 198
-325 256 -410 323 -393 308 -368 320 65 27 275 108 286 109 6 1 112 -68 235
-152z m1065 131 c-3 -8 -6 -5 -6 6 -1 11 2 17 5 13 3 -3 4 -12 1 -19z m-20
-110 c-3 -8 -6 -5 -6 6 -1 11 2 17 5 13 3 -3 4 -12 1 -19z m-10 -50 c-3 -8 -6
-5 -6 6 -1 11 2 17 5 13 3 -3 4 -12 1 -19z m-92 -705 c-4 -12 -85 -58 -89 -51
-2 2 -18 95 -38 208 l-35 204 35 76 c19 41 46 100 60 130 l25 55 24 -305 c12
-168 21 -310 18 -317z m22 575 c-3 -8 -6 -5 -6 6 -1 11 2 17 5 13 3 -3 4 -12
1 -19z m1483 -71 c0 -2 -10 -12 -22 -23 l-23 -19 19 23 c18 21 26 27 26 19z
m-1473 -74 c-3 -10 -5 -4 -5 12 0 17 2 24 5 18 2 -7 2 -21 0 -30z m-222 -95
c9 -43 65 -353 67 -378 3 -24 2 -24 -137 -41 -77 -10 -153 -18 -169 -18 l-28
-1 6 143 c4 78 9 181 12 230 l6 87 119 0 c115 0 119 -1 124 -22z m1905 -78 c0
-11 -4 -20 -9 -20 -5 0 -7 9 -4 20 3 11 7 20 9 20 2 0 4 -9 4 -20z m-1370 -4
c0 -2 -8 -10 -17 -17 -16 -13 -17 -12 -4 4 13 16 21 21 21 13z m-200 -169 c0
-2 -12 -14 -27 -28 l-28 -24 24 28 c23 25 31 32 31 24z m-643 -159 c-3 -7 -5
-2 -5 12 0 14 2 19 5 13 2 -7 2 -19 0 -25z"/>
</g>
</svg>
